<svg aria-hidden="true" style="position: absolute; width: 0; height: 0; overflow: hidden;" version="1.1" xmlns="http://www.w3.org/2000/svg" xmlns:xlink="http://www.w3.org/1999/xlink">
  <defs>

    <symbol id="icon-lock" viewBox="0 0 24 32">
      <path d="M21.208 31.971h-17.683c-1.628 0-2.947-1.32-2.947-2.947v-10.807c0-1.628 1.32-2.947 2.947-2.947h0.983v-7.859c0-3.798 3.518-6.877 7.859-6.877s7.859 3.079 7.859 6.877v7.859h0.982c1.628 0 2.947 1.32 2.947 2.947v10.807c0 1.627-1.32 2.947-2.947 2.947zM16.296 7.41c0-1.627-1.759-2.947-3.929-2.947s-3.93 1.32-3.93 2.947v6.877c0 0.347 0.094 0.675 0.241 0.983h7.378c0.147-0.308 0.241-0.636 0.241-0.983v-6.877zM12.366 18.216c-2.17 0-3.93 1.76-3.93 3.929 0 1.451 0.796 2.704 1.965 3.385v1.527c0 1.086 0.879 1.965 1.965 1.965s1.965-0.879 1.965-1.965v-1.527c1.17-0.681 1.965-1.934 1.965-3.385 0-2.169-1.759-3.929-3.929-3.929z"></path>
    </symbol>

    <symbol id="icon-laptop" viewBox="0 0 38 32">
      <path d="M33.786 31.574h-29.52c-1.359 0-3.69-1.102-3.69-2.46s1.101-2.46 2.459-2.46h31.982c1.359 0 2.46 1.102 2.46 2.46s-2.332 2.46-3.691 2.46zM22.716 29.114h-7.38c-0.679 0-1.23 0.275-1.23 0.615s0.55 0.614 1.23 0.614h7.38c0.679 0 1.231-0.275 1.231-0.614s-0.551-0.615-1.231-0.615zM14.231 13.514l2.27 2.28 7.316-7.349c0.478-0.481 1.253-0.481 1.732 0l1.733 1.739c0.478 0.481 0.478 1.26 0 1.74l-9.525 9.567c-0.41 0.412-1.029 0.449-1.502 0.154-0.402 0.101-0.843 0.014-1.158-0.303l-4.329-4.348c-0.478-0.481-0.478-1.259 0-1.74l1.732-1.74c0.478-0.48 1.254-0.48 1.732 0zM31.327 4.513h-24.602v19.681h-3.69v-2.46h0.227c-0.138-0.387-0.227-0.796-0.227-1.23v-15.991c0-2.038 1.652-3.69 3.69-3.69h24.602c2.038 0 3.69 1.652 3.69 3.69v15.991c0 0.433-0.089 0.843-0.226 1.23h0.226v2.46h-3.69v-19.681z"></path>
    </symbol>

    <symbol id="icon-basket" viewBox="0 0 33 32">
      <path d="M29.424 13.4h-25.98c-1.56 0-2.824-1.264-2.824-2.824s1.264-2.823 2.824-2.823h3.195c0.050-0.181 0.116-0.359 0.213-0.53l3.389-5.87c0.624-1.080 2.005-1.451 3.086-0.826s1.451 2.005 0.827 3.086l-2.39 4.14h9.339l-2.39-4.14c-0.624-1.081-0.254-2.462 0.827-3.086s2.462-0.254 3.086 0.826l3.389 5.87c0.098 0.171 0.163 0.349 0.213 0.53h3.196c1.56 0 2.824 1.264 2.824 2.823s-1.264 2.824-2.824 2.824zM28.945 31.473h-25.024l-0.977-16.944h26.979l-0.978 16.944zM10.786 20.177c0-0.624-0.506-1.13-1.13-1.13s-1.129 0.505-1.129 1.13v6.777c0 0.624 0.505 1.13 1.129 1.13s1.13-0.506 1.13-1.13v-6.777zM17.563 20.177c0-0.624-0.505-1.13-1.13-1.13s-1.129 0.505-1.129 1.13v6.777c0 0.624 0.505 1.13 1.129 1.13s1.13-0.506 1.13-1.13v-6.777zM24.34 20.177c0-0.624-0.506-1.13-1.13-1.13s-1.13 0.505-1.13 1.13v6.777c0 0.624 0.506 1.13 1.13 1.13s1.13-0.506 1.13-1.13v-6.777z"></path>
    </symbol>
    
  </defs>
</svg>
