<svg aria-hidden="true" style="position: absolute; width: 0; height: 0; overflow: hidden;" version="1.1" xmlns="http://www.w3.org/2000/svg" xmlns:xlink="http://www.w3.org/1999/xlink">
<defs>

  <symbol id="icon-cart" viewBox="0 0 32 32">
    <path d="M31.914 5.4l-2.914 11.6c0 0.139-0.028 0.27-0.078 0.389-0.102 0.24-0.293 0.432-0.532 0.533-0.12 0.051-0.252 0.078-0.39 0.078h-19l0.8 4h17.2c0.553 0 1 0.447 1 1s-0.447 1-1 1h-18c-0.553 0-1-0.447-1-1l-3.8-19h-3.2c-0.552 0-1-0.448-1-1s0.448-1 1-1h4c0.553 0 1 0.448 1 1l0.2 1h24.8c0.553 0 1 0.448 1 1 0 0.143-0.032 0.277-0.086 0.4zM8.6 16h3.4v-10h-5.4l2 10zM18 6h-5v10h5v-10zM24 6h-5v10h5v-10zM25 6v10h2.253l2.533-10h-4.786zM11 26c1.657 0 3 1.344 3 3s-1.343 3-3 3-3-1.344-3-3 1.343-3 3-3zM11 30c0.553 0 1-0.447 1-1s-0.447-1-1-1-1 0.447-1 1 0.447 1 1 1zM25 26c1.657 0 3 1.344 3 3s-1.343 3-3 3-3-1.344-3-3 1.343-3 3-3zM25 30c0.553 0 1-0.447 1-1s-0.447-1-1-1-1 0.447-1 1 0.447 1 1 1z"></path>
  </symbol>

  <symbol id="icon-arrow-shuffle" viewBox="0 0 24 24">
    <path d="M4 9h3.5c0.736 0 1.393 0.391 1.851 1.001 0.325-0.604 0.729-1.163 1.191-1.662-0.803-0.823-1.866-1.339-3.042-1.339h-3.5c-0.553 0-1 0.448-1 1s0.447 1 1 1z"></path>
    <path d="M11.685 12.111c0.551-1.657 2.256-3.111 3.649-3.111h1.838l-1.293 1.293c-0.391 0.391-0.391 1.023 0 1.414 0.195 0.195 0.451 0.293 0.707 0.293s0.512-0.098 0.707-0.293l3.707-3.707-3.707-3.707c-0.391-0.391-1.023-0.391-1.414 0s-0.391 1.023 0 1.414l1.293 1.293h-1.838c-2.274 0-4.711 1.967-5.547 4.479l-0.472 1.411c-0.641 1.926-2.072 3.11-2.815 3.11h-2.5c-0.553 0-1 0.448-1 1s0.447 1 1 1h2.5c1.837 0 3.863-1.925 4.713-4.479l0.472-1.41z"></path>
    <path d="M15.879 13.293c-0.391 0.391-0.391 1.023 0 1.414l1.293 1.293h-2.338c-1.268 0-2.33-0.891-2.691-2.108-0.256 0.75-0.627 1.499-1.090 2.185 0.886 1.162 2.243 1.923 3.781 1.923h2.338l-1.293 1.293c-0.391 0.391-0.391 1.023 0 1.414 0.195 0.195 0.451 0.293 0.707 0.293s0.512-0.098 0.707-0.293l3.707-3.707-3.707-3.707c-0.391-0.391-1.023-0.391-1.414 0z"></path>
  </symbol>

  <symbol id="icon-clock-o" viewBox="0 0 24 28">
    <path d="M14 8.5v7c0 0.281-0.219 0.5-0.5 0.5h-5c-0.281 0-0.5-0.219-0.5-0.5v-1c0-0.281 0.219-0.5 0.5-0.5h3.5v-5.5c0-0.281 0.219-0.5 0.5-0.5h1c0.281 0 0.5 0.219 0.5 0.5zM20.5 14c0-4.688-3.813-8.5-8.5-8.5s-8.5 3.813-8.5 8.5 3.813 8.5 8.5 8.5 8.5-3.813 8.5-8.5zM24 14c0 6.625-5.375 12-12 12s-12-5.375-12-12 5.375-12 12-12 12 5.375 12 12z"></path>
  </symbol>

  <symbol id="icon-heart-o" viewBox="0 0 28 28">
    <path d="M26 9.312c0-4.391-2.969-5.313-5.469-5.313-2.328 0-4.953 2.516-5.766 3.484-0.375 0.453-1.156 0.453-1.531 0-0.812-0.969-3.437-3.484-5.766-3.484-2.5 0-5.469 0.922-5.469 5.313 0 2.859 2.891 5.516 2.922 5.547l9.078 8.75 9.063-8.734c0.047-0.047 2.938-2.703 2.938-5.563zM28 9.312c0 3.75-3.437 6.891-3.578 7.031l-9.734 9.375c-0.187 0.187-0.438 0.281-0.688 0.281s-0.5-0.094-0.688-0.281l-9.75-9.406c-0.125-0.109-3.563-3.25-3.563-7 0-4.578 2.797-7.313 7.469-7.313 2.734 0 5.297 2.156 6.531 3.375 1.234-1.219 3.797-3.375 6.531-3.375 4.672 0 7.469 2.734 7.469 7.313z"></path>
  </symbol>

  <symbol id="icon-chevron-thin-right" viewBox="0 0 20 20">
    <path d="M13.25 10l-7.141-7.42c-0.268-0.27-0.268-0.707 0-0.979 0.268-0.27 0.701-0.27 0.969 0l7.83 7.908c0.268 0.271 0.268 0.709 0 0.979l-7.83 7.908c-0.268 0.271-0.701 0.27-0.969 0s-0.268-0.707 0-0.979l7.141-7.417z"></path>
  </symbol>

  <symbol id="icon-chevron-thin-left" viewBox="0 0 20 20">
   <path d="M13.891 17.418c0.268 0.272 0.268 0.709 0 0.979s-0.701 0.271-0.969 0l-7.83-7.908c-0.268-0.27-0.268-0.707 0-0.979l7.83-7.908c0.268-0.27 0.701-0.27 0.969 0s0.268 0.709 0 0.979l-7.141 7.419 7.141 7.418z"></path>
  </symbol>

</defs>
</svg>
