<svg aria-hidden="true" style="position: absolute; width: 0; height: 0; overflow: hidden;" version="1.1" xmlns="http://www.w3.org/2000/svg" xmlns:xlink="http://www.w3.org/1999/xlink">
  <defs>

  <symbol id="icon-airplane" viewBox="0 0 34 32">
    <title>airplane</title>
    <path d="M27.162 25.2c-0.022 0.086-0.078 0.156-0.154 0.202-0.050 0.026-0.104 0.042-0.16 0.042-0.032 0-0.064-0.006-0.094-0.014l-11.648-3.518c-0.104-0.032-0.184-0.112-0.216-0.214-0.030-0.106-0.006-0.218 0.064-0.298l11.594-13.608-15.094 12.794c-0.084 0.078-0.204 0.102-0.314 0.068l-9.924-3.13c-0.124-0.040-0.212-0.15-0.224-0.28-0.010-0.13 0.058-0.252 0.176-0.312l31.356-15.898c0.112-0.058 0.248-0.044 0.348 0.032 0.098 0.078 0.142 0.206 0.112 0.328l-5.822 23.806zM15.296 24.406l3.218 0.982c0.096 0.030 0.174 0.102 0.21 0.196 0.034 0.092 0.024 0.196-0.032 0.28l-3.218 5.044c-0.062 0.094-0.164 0.15-0.272 0.15-0.032 0-0.062-0.006-0.090-0.014-0.14-0.040-0.234-0.164-0.234-0.308v-6.024c0-0.102 0.048-0.198 0.132-0.258 0.082-0.060 0.188-0.080 0.286-0.048z"></path>
  </symbol>

  <symbol id="icon-coffee" viewBox="0 0 30 32">
    <title>coffee</title>
    <path d="M30.116 28.681c0 1.218-1.143 1.483-5.080 1.762-2.669 0.188-6.212 0.294-9.978 0.294-3.765 0-7.309-0.105-9.978-0.294-3.936-0.279-5.080-0.544-5.080-1.762s1.144-1.483 5.080-1.762c1.131-0.079 2.426-0.143 3.821-0.19-2.792-2.428-4.627-6.451-4.627-11.002 0-0.587 0.472-1.064 1.052-1.064h19.464c0.582 0 1.052 0.476 1.052 1.064 0 0.563-0.036 1.112-0.090 1.658 1.248-0.314 2.605 0.192 3.309 1.361 0.42 0.696 0.546 1.515 0.356 2.31-0.19 0.792-0.674 1.463-1.365 1.888-0.478 0.296-1.018 0.446-1.566 0.446-0.239 0-0.48-0.028-0.719-0.087-0.544-0.134-1.024-0.42-1.412-0.809-0.792 1.679-1.869 3.121-3.145 4.235 1.399 0.047 2.696 0.111 3.827 0.19 3.938 0.279 5.080 0.544 5.080 1.762zM24.977 21.259c0.245 0.407 0.631 0.693 1.088 0.806 0.456 0.111 0.928 0.036 1.331-0.211 0.401-0.247 0.683-0.638 0.794-1.099s0.038-0.939-0.207-1.346c-0.506-0.838-1.591-1.103-2.419-0.595-0.008 0.008-0.017 0.006-0.024 0.011-0.156 0.815-0.369 1.602-0.638 2.353 0.024 0.028 0.056 0.049 0.075 0.081zM23.701 16.791h-17.286c0.414 5.73 4.132 10.229 8.642 10.229 4.512 0 8.23-4.499 8.644-10.229zM18.4 11.576c0.094 0.26 0.049 0.544-0.119 0.762-0.151 0.196-0.384 0.311-0.627 0.311l-0.058-0.002c-0.439-0.041-1.033-0.307-1.325-0.917-0.371-0.777-0.137-1.801 0.719-3.127 0.053-0.081 0.102-0.16 0.147-0.235l0.049-0.081c0.659-1.111 0.544-1.515 0.529-1.557 0.002 0.002 0.038 0.017 0.087 0.030-0.201-0.060-0.369-0.198-0.469-0.386-0.102-0.188-0.124-0.405-0.064-0.61 0.12-0.408 0.574-0.661 0.984-0.54 0.117 0.034 0.693 0.241 0.951 0.951 0.279 0.768 0.055 1.743-0.683 2.98-0.576 1.075-0.124 2.408-0.12 2.421zM13.973 11.351c0.098 0.275 0.051 0.578-0.126 0.811-0.16 0.207-0.41 0.331-0.668 0.331l-0.072-0.004c-0.465-0.043-1.355-0.352-1.777-1.237-0.525-1.097-0.141-2.662 1.141-4.649 0.1-0.152 0.19-0.299 0.275-0.44l0.041-0.068c1.109-1.867 1.005-2.682 0.909-2.946-0.064-0.179-0.179-0.235-0.183-0.237-0.41-0.12-0.666-0.597-0.533-1.048 0.13-0.442 0.608-0.704 1.048-0.574 0.088 0.026 0.894 0.288 1.252 1.272 0.397 1.096 0.036 2.596-1.077 4.459-1.047 1.956-0.241 4.305-0.232 4.329z"></path>
  </symbol>

  <symbol id="icon-proof" viewBox="0 0 26 32">
    <title>proof</title>
    <path d="M24.44 27.978c0.36 0.874 0.254 1.902-0.298 2.718-0.55 0.816-1.468 1.3-2.454 1.3h-17.444c-0.988 0-1.904-0.484-2.456-1.298-0.55-0.818-0.656-1.846-0.284-2.752l6.118-16.55v-4.882c-1.16-0.4-1.99-1.494-1.99-2.776v-0.796c0-1.622 1.328-2.942 2.958-2.942h8.75c1.632 0 2.958 1.32 2.958 2.942v0.796c0 1.284-0.832 2.378-1.988 2.778v4.88l6.13 16.582zM14.718 28.556c0.964 0 1.742-0.776 1.742-1.734 0-0.952-0.778-1.73-1.742-1.73s-1.742 0.778-1.742 1.73c0 0.958 0.778 1.734 1.742 1.734zM15.746 21.296c0-0.686-0.562-1.248-1.254-1.248-0.694 0-1.258 0.562-1.258 1.248 0 0.688 0.564 1.248 1.258 1.248 0.692 0 1.254-0.56 1.254-1.248zM9.224 25.22c0.56 0 1.012-0.446 1.012-1.002s-0.452-1.002-1.012-1.002c-0.554 0-1.006 0.446-1.006 1.002s0.452 1.002 1.006 1.002zM18.342 3.738v-0.796c0-0.55-0.45-0.996-1.002-0.996h-8.75c-0.552 0-1 0.446-1 0.996v0.796c0 0.548 0.448 0.994 1 0.994h0.98l0.008 0.974v6.036l-2.282 6.174h0.090c0 0 9.338-0.152 10.616-1.472 0.024-0.024 0.044-0.038 0.068-0.060l-1.718-4.642v-7.010h0.98c0.56 0 1.010-0.446 1.010-0.994zM12.284 15.488c-0.754 0-1.364-0.608-1.364-1.356 0-0.746 0.61-1.354 1.364-1.354 0.75 0 1.362 0.608 1.362 1.354 0 0.748-0.612 1.356-1.362 1.356z"></path>
  </symbol>

  <symbol id="icon-tv" viewBox="0 0 32 32">
    <title>tv</title>
    <path d="M29.326 8h-11.352l4.478-5.374c0.072 0.012 0.134 0.040 0.208 0.040 0.738 0 1.334-0.596 1.334-1.334 0-0.734-0.596-1.334-1.334-1.334-0.734 0-1.334 0.6-1.334 1.334 0 0.16 0.040 0.308 0.092 0.452l-5.18 6.216h-0.486l-5.178-6.216c0.050-0.144 0.090-0.292 0.090-0.452 0-0.734-0.596-1.334-1.334-1.334-0.734 0-1.334 0.6-1.334 1.334 0 0.738 0.6 1.334 1.334 1.334 0.074 0 0.138-0.028 0.208-0.040l4.478 5.374h-11.352c-1.47 0-2.664 1.196-2.664 2.668v18.674c0 1.474 1.194 2.668 2.664 2.668h26.662c1.472 0 2.666-1.194 2.666-2.668v-18.674c0-1.472-1.194-2.668-2.666-2.668zM23.994 26.674c0 1.474-1.194 2.668-2.668 2.668h-15.994c-1.472 0-2.668-1.194-2.668-2.668v-13.338c0-1.474 1.196-2.668 2.668-2.668h15.994c1.474 0 2.668 1.194 2.668 2.668v13.338zM27.922 14.754c-1.052 0-1.904-0.856-1.904-1.906 0-1.052 0.852-1.904 1.904-1.904 1.050 0 1.902 0.852 1.902 1.904 0 1.050-0.852 1.906-1.902 1.906z"></path>
  </symbol>

  </defs>
</svg>
